# xmcd CD database file
#
# Track frame offsets:
#	180
#	11615
#	23217
#	36559
#	48380
#	62409
#	75921
#	89400
#	101358
#	115562
#	126611
#	140677
#	154152
#	166281
#	178183
#	202484
#	214713
#	228441
#
# Disc length: 3237 seconds
#
# Revision: 0
# Processed by: cddbd v1.5.2PL0 Copyright (c) Steve Scherf et al.
# Submitted via: CDex 1.70beta2
#
DISCID=f90ca312
DTITLE=Various Artist - Blues Festival  CD 7
DYEAR=1900
DGENRE=Blues
TTITLE0=Bukka White - Aberdeen Mississippi Blues
TTITLE1=Joe Williams - Every Day
TTITLE2=Lonnie Johnson - Backwater Blues
TTITLE3=Lightnin' Hopkins - Somebody Baby
TTITLE4=Bessie Smith - Dixie Flyer Blues 
TTITLE5=John Lee Hooker - My Baby Don't Love Me
TTITLE6=Big Bill Broonzy - Come Home Early
TTITLE7=Big Joe Turner - Rocks In My Bed
TTITLE8=Muddy Waters - Burr Clover Blues
TTITLE9=John Lee Hooker - What Do You Say
TTITLE10=Lightnin' Hopkins - Blues (That Mean Old Twister)
TTITLE11=Dr. Clayton - Pearl Harbour Blues
TTITLE12=Brownie Mc Ghee - Me And My Dog Blues 
TTITLE13=John Lee Hooker - Ground Hog
TTITLE14=Mahalia Jackson - I Will Move On Up A Little Higher
TTITLE15=Casey Bill Weldon - Go Ahead, Buddy
TTITLE16=Big Bill Broonzy - Horny Frog
TTITLE17=Edmond Hall - The Man I Love 
EXTD=
EXTT0=
EXTT1=
EXTT2=
EXTT3=
EXTT4=
EXTT5=
EXTT6=
EXTT7=
EXTT8=
EXTT9=
EXTT10=
EXTT11=
EXTT12=
EXTT13=
EXTT14=
EXTT15=
EXTT16=
EXTT17=
PLAYORDER=
